<?xml version="1.0" standalone="no"?>
<!DOCTYPE svg PUBLIC "-//W3C//DTD SVG 20010904//EN"
 "http://www.w3.org/TR/2001/REC-SVG-20010904/DTD/svg10.dtd">
<svg version="1.0" xmlns="http://www.w3.org/2000/svg"
 width="1299.000000pt" height="1299.000000pt" viewBox="0 0 1299.000000 1299.000000"
 preserveAspectRatio="xMidYMid meet">

<g transform="translate(0.000000,1299.000000) scale(0.100000,-0.100000)"
fill="#000000" stroke="none">
<path d="M10825 9880 c-161 -23 -285 -154 -285 -299 0 -25 14 -102 30 -171 16
-69 30 -153 30 -187 l0 -63 -284 0 c-472 0 -945 -49 -1459 -151 -485 -95
-1060 -269 -1347 -406 -95 -45 -134 -58 -229 -74 -136 -23 -238 -49 -386 -96
-639 -205 -1715 -771 -2882 -1515 -120 -76 -217 -131 -237 -135 l-35 -5 6 55
6 55 -52 7 c-41 6 -51 11 -51 26 0 30 24 82 70 149 41 61 70 127 70 161 0 27
-26 25 -170 -16 -149 -42 -207 -45 -238 -12 -29 31 -42 78 -42 150 0 56 -1 58
-22 51 -77 -23 -130 -80 -157 -169 -24 -76 -29 -122 -41 -325 -15 -263 -37
-302 -206 -359 -151 -52 -258 -101 -374 -171 -373 -225 -738 -565 -1046 -973
-94 -124 -114 -144 -192 -197 -219 -148 -380 -351 -412 -518 -11 -60 5 -164
36 -224 97 -192 327 -375 584 -466 216 -75 414 -101 629 -81 140 13 258 15
636 9 235 -4 466 35 725 120 236 78 385 156 519 269 46 38 101 82 122 97 l39
27 87 -31 c49 -16 129 -48 179 -70 89 -40 207 -72 219 -60 11 11 -17 45 -59
72 l-40 26 29 0 c46 0 100 18 119 39 17 19 17 20 -21 26 -177 32 -229 51 -288
110 -49 50 -46 65 13 65 60 -1 138 -33 267 -111 260 -156 420 -322 526 -542
46 -97 67 -197 51 -239 -8 -19 -59 -58 -169 -131 -219 -145 -288 -222 -252
-286 22 -40 62 -39 102 1 93 95 181 155 250 172 27 6 27 6 27 -48 0 -44 8 -69
43 -137 51 -99 107 -160 170 -184 43 -16 48 -16 72 -1 34 23 32 40 -15 93 -40
46 -80 134 -80 177 0 35 37 76 68 76 32 0 120 -40 222 -102 123 -74 160 -90
210 -90 59 0 90 16 90 46 0 28 -18 44 -89 82 -30 16 -79 52 -107 80 -82 79
-84 132 -8 165 41 19 52 19 172 8 157 -14 202 -8 202 26 0 37 -55 68 -211 118
-243 79 -305 130 -360 295 -65 200 -129 310 -256 442 l-73 77 43 -10 c33 -7
51 -6 82 7 l39 17 -26 22 c-14 12 -33 33 -42 47 l-16 26 63 -4 c68 -4 117 9
117 32 0 8 -22 34 -50 58 -27 23 -55 55 -61 71 -11 25 -9 31 13 53 18 19 42
28 94 35 441 66 859 177 1254 334 191 75 512 234 679 334 344 208 650 458 819
670 l75 94 140 -7 c392 -18 635 -89 909 -263 59 -37 155 -97 214 -133 128 -79
219 -152 259 -209 23 -34 30 -57 33 -105 5 -71 -18 -138 -87 -251 -43 -71 -54
-131 -27 -141 45 -17 175 115 237 241 47 94 38 92 114 25 94 -84 263 -180 316
-180 33 0 53 22 44 51 -4 11 -37 53 -75 93 -71 75 -181 256 -155 256 7 0 67
-21 132 -47 137 -54 226 -67 268 -39 52 34 10 87 -150 186 -60 38 -126 83
-145 101 l-35 32 60 13 c85 18 138 38 189 74 78 53 109 112 66 123 -24 6 -107
-5 -200 -26 -162 -37 -225 -31 -359 36 -47 24 -154 89 -238 145 -83 55 -189
121 -235 146 -110 59 -395 187 -483 216 -82 27 -105 44 -105 78 0 54 175 187
306 233 43 15 78 18 186 17 188 -2 366 33 728 144 704 216 941 344 1149 622
135 181 204 313 291 561 73 206 94 249 213 447 97 160 165 286 187 343 9 22 6
25 -47 40 -130 38 -209 89 -521 338 -119 95 -237 187 -262 204 -137 93 -312
141 -445 123z"/>
<path d="M7091 9052 c-16 -16 -34 -48 -41 -71 -13 -51 -30 -188 -30 -253 l0
-47 -32 14 c-71 29 -271 70 -290 58 -12 -7 17 -55 54 -89 18 -17 59 -50 91
-73 31 -23 57 -45 57 -50 0 -7 -125 -31 -243 -46 -71 -9 -47 -25 39 -25 127 0
467 77 682 155 40 14 77 23 83 20 6 -4 7 3 3 19 -12 48 6 111 56 196 47 79 68
135 57 147 -3 3 -20 2 -38 -2 -51 -11 -116 -81 -182 -193 l-60 -103 -33 113
c-37 129 -70 218 -87 234 -28 27 -56 26 -86 -4z"/>
<path d="M1677 6508 c-13 -48 39 -117 153 -204 27 -21 47 -41 45 -45 -3 -3
-31 -10 -62 -14 -71 -8 -314 -58 -403 -83 -58 -15 -65 -20 -65 -42 0 -18 9
-30 35 -43 30 -16 59 -18 215 -16 99 1 196 1 215 0 l35 -1 -40 -32 c-22 -17
-64 -57 -94 -87 -63 -64 -226 -280 -218 -287 3 -3 30 -1 61 6 101 21 176 83
399 332 170 190 415 367 585 423 29 9 52 19 50 21 -2 1 -111 0 -243 -4 -132
-4 -269 -4 -305 0 -35 4 -123 28 -195 53 -72 25 -138 45 -147 45 -9 0 -18 -10
-21 -22z"/>
</g>
</svg>
