<?xml version="1.0" standalone="no"?>
<!DOCTYPE svg PUBLIC "-//W3C//DTD SVG 20010904//EN"
 "http://www.w3.org/TR/2001/REC-SVG-20010904/DTD/svg10.dtd">
<svg version="1.0" xmlns="http://www.w3.org/2000/svg"
 width="1299.000000pt" height="1299.000000pt" viewBox="0 0 1299.000000 1299.000000"
 preserveAspectRatio="xMidYMid meet">

<g transform="translate(0.000000,1299.000000) scale(0.100000,-0.100000)"
fill="#000000" stroke="none">
<path d="M7335 10063 c-436 -18 -890 -132 -1230 -307 -169 -86 -544 -346 -828
-573 -673 -538 -1034 -1059 -1233 -1783 -19 -69 -42 -136 -52 -150 -32 -43
-139 -108 -225 -135 -119 -38 -309 -64 -573 -77 l-230 -12 -30 -50 c-46 -77
-144 -170 -221 -208 -60 -29 -77 -33 -148 -33 -44 0 -97 4 -117 8 -33 7 -38 6
-38 -10 0 -80 -71 -243 -136 -313 -69 -74 -137 -104 -238 -104 -45 -1 -97 2
-116 7 l-35 7 -13 -66 c-16 -82 -70 -202 -118 -261 -72 -87 -191 -143 -306
-143 -26 0 -48 -2 -48 -3 0 -2 9 -30 20 -63 48 -137 63 -292 38 -378 -13 -43
-78 -116 -103 -116 -24 0 -18 -14 14 -33 50 -29 128 -106 164 -160 56 -85 77
-156 80 -266 l2 -96 109 -157 110 -158 2 -222 c2 -231 10 -319 45 -498 84
-424 293 -734 583 -866 156 -71 370 -103 569 -85 628 58 1042 352 1168 829 33
122 37 320 9 452 -42 204 -116 348 -244 476 -124 122 -294 200 -494 224 -365
45 -712 -188 -808 -540 -25 -92 -23 -250 5 -355 44 -166 136 -321 259 -437
135 -128 286 -174 428 -133 241 69 398 286 381 525 -5 64 -18 117 -51 215 -4
11 2 4 13 -15 46 -80 66 -160 66 -270 0 -101 -1 -108 -38 -184 -71 -148 -239
-281 -408 -321 -82 -19 -216 -19 -299 1 -118 27 -205 78 -306 179 -75 75 -99
107 -141 190 -70 136 -86 203 -86 345 1 157 32 272 117 445 174 349 506 661
921 865 232 115 526 200 997 290 653 124 789 185 1216 543 176 147 267 212
342 241 155 61 327 34 616 -95 150 -67 221 -82 456 -99 276 -20 484 10 504 72
17 53 -78 137 -267 238 l-89 46 178 38 c97 20 229 55 292 77 360 126 545 174
645 166 39 -3 149 -13 245 -21 250 -22 683 -38 835 -31 72 4 184 13 250 22
155 20 339 12 540 -23 83 -14 205 -28 271 -31 148 -7 233 14 301 72 44 37 88
116 98 175 l6 35 -73 1 c-40 1 -93 7 -118 13 -54 15 -180 71 -180 81 0 4 35
34 78 67 199 155 290 281 240 331 -6 6 -10 13 -7 15 2 2 51 13 109 26 142 31
311 83 450 138 376 148 615 354 694 599 16 51 16 51 -14 140 -41 116 -127 296
-178 371 -22 33 -67 83 -99 111 -65 57 -63 55 -134 135 -56 62 -133 106 -229
133 -77 21 -258 28 -366 15 l-91 -11 -118 66 c-242 135 -523 244 -735 284 -92
18 -137 21 -230 17 -63 -3 -132 -10 -152 -16 l-38 -12 0 -134 c0 -74 -2 -135
-5 -135 -2 0 -60 41 -127 91 -405 299 -851 559 -1113 648 -160 54 -471 102
-785 121 -156 9 -243 10 -405 3z m-4100 -6057 c63 -26 75 -97 26 -147 -58 -58
-150 -22 -151 59 0 45 16 71 53 87 40 18 32 17 72 1z"/>
</g>
</svg>
