<?xml version="1.0" standalone="no"?>
<!DOCTYPE svg PUBLIC "-//W3C//DTD SVG 20010904//EN"
 "http://www.w3.org/TR/2001/REC-SVG-20010904/DTD/svg10.dtd">
<svg version="1.0" xmlns="http://www.w3.org/2000/svg"
 width="1300.000000pt" height="1300.000000pt" viewBox="0 0 1300.000000 1300.000000"
 preserveAspectRatio="xMidYMid meet">

<g transform="translate(0.000000,1300.000000) scale(0.100000,-0.100000)"
fill="#000000" stroke="none">
<path d="M3000 11069 c-198 -22 -417 -113 -865 -356 -132 -72 -290 -155 -351
-186 -154 -77 -192 -124 -214 -264 -28 -175 70 -480 217 -679 62 -83 156 -174
204 -200 23 -12 29 -21 29 -48 0 -50 34 -149 70 -206 43 -68 135 -151 260
-237 131 -89 169 -127 177 -179 18 -123 221 -453 745 -1214 321 -466 330 -484
330 -610 0 -144 -59 -247 -253 -440 -116 -116 -140 -146 -277 -356 -206 -313
-257 -385 -325 -459 -109 -120 -244 -162 -552 -172 -287 -9 -504 15 -825 92
-270 65 -414 75 -489 36 -87 -47 -77 -171 19 -254 74 -63 197 -93 424 -103
118 -5 202 -18 519 -80 207 -40 392 -81 410 -90 17 -9 71 -45 119 -80 142
-104 227 -140 397 -169 52 -9 103 -21 113 -26 32 -17 20 -49 -46 -118 -36 -36
-70 -79 -75 -95 -21 -55 23 -103 137 -148 46 -17 77 -22 157 -22 93 1 109 4
235 48 172 61 270 70 370 36 107 -36 287 -126 620 -312 173 -96 349 -192 390
-213 89 -44 88 -44 70 -55 -50 -31 -206 -14 -360 38 -47 16 -195 74 -330 129
-354 145 -341 142 -495 128 -138 -12 -408 33 -652 110 -152 48 -178 46 -189
-11 -14 -74 90 -225 201 -290 l45 -26 -24 -31 c-57 -74 -53 -135 10 -184 31
-23 33 -28 20 -42 -8 -9 -20 -37 -26 -63 -24 -96 37 -208 113 -208 18 0 113
28 212 61 149 51 195 62 265 66 l85 5 55 -38 c231 -159 1126 -441 1618 -508
160 -23 334 -21 411 3 123 38 322 171 911 611 609 454 536 407 667 420 217 20
474 -21 651 -105 52 -25 160 -91 240 -149 439 -310 852 -493 1162 -512 113 -7
203 9 311 57 114 50 171 39 424 -78 241 -111 344 -135 432 -98 20 8 39 13 42
10 3 -4 5 -39 5 -79 0 -101 -37 -174 -149 -294 -100 -105 -124 -118 -318 -157
-377 -76 -919 -117 -1505 -114 -345 1 -374 0 -392 -16 -37 -33 -26 -73 34
-131 75 -73 157 -99 311 -99 l110 0 -105 -36 c-300 -102 -380 -210 -212 -287
46 -21 72 -26 137 -26 71 0 92 5 195 46 337 133 950 309 1285 368 151 27 354
37 413 21 26 -7 62 -29 88 -53 85 -78 119 -187 159 -506 45 -358 72 -476 129
-562 49 -74 133 -117 208 -107 56 7 85 39 99 106 15 72 3 169 -56 471 -55 285
-65 350 -65 447 l0 78 109 102 c653 613 742 1324 257 2057 -134 202 -245 296
-422 355 -171 57 -340 63 -649 21 -203 -27 -262 -27 -304 4 -43 32 -79 81 -91
126 -15 52 -12 206 6 397 22 226 15 603 -15 783 -92 569 -307 1142 -676 1805
-97 174 -126 214 -217 301 -186 176 -413 302 -1008 559 -162 70 -360 160 -440
201 -143 72 -180 96 -336 223 -190 154 -382 265 -929 536 -566 280 -726 393
-840 595 -99 173 -253 293 -460 356 -84 26 -102 28 -280 28 -206 1 -268 -8
-454 -65 -192 -59 -263 -39 -472 137 -186 157 -288 217 -431 253 -93 23 -176
30 -258 20z"/>
</g>
</svg>
