<?xml version="1.0" standalone="no"?>
<!DOCTYPE svg PUBLIC "-//W3C//DTD SVG 20010904//EN"
 "http://www.w3.org/TR/2001/REC-SVG-20010904/DTD/svg10.dtd">
<svg version="1.0" xmlns="http://www.w3.org/2000/svg"
 width="1299.000000pt" height="1299.000000pt" viewBox="0 0 1299.000000 1299.000000"
 preserveAspectRatio="xMidYMid meet">

<g transform="translate(0.000000,1299.000000) scale(0.100000,-0.100000)"
fill="#000000" stroke="none">
<path d="M5632 9635 c-67 -31 -89 -48 -177 -135 l-71 -70 -129 -26 c-72 -14
-243 -50 -380 -79 -330 -71 -418 -85 -551 -85 -202 0 -406 47 -839 192 l-300
101 -138 5 c-153 5 -302 -8 -473 -43 -88 -18 -123 -21 -155 -14 -52 12 -173
14 -219 4 -64 -14 -111 -46 -193 -130 -94 -99 -109 -105 -302 -134 -154 -24
-212 -40 -283 -81 -134 -78 -167 -235 -84 -402 18 -36 25 -63 21 -75 -4 -10
-8 -40 -8 -66 -2 -126 74 -179 574 -400 246 -109 440 -181 614 -228 99 -27
362 -36 551 -20 277 24 652 86 971 161 96 22 199 43 230 46 54 6 57 5 90 -29
50 -52 121 -180 126 -230 6 -54 -22 -91 -105 -137 -91 -52 -273 -174 -355
-239 -43 -34 -93 -86 -116 -119 -42 -63 -84 -89 -125 -78 -14 3 -55 31 -91 62
-105 89 -152 60 -76 -47 67 -96 62 -101 -129 -118 -137 -13 -180 -30 -119 -49
19 -6 68 -16 109 -22 109 -17 150 -29 150 -45 0 -8 -46 -29 -127 -55 -139 -46
-173 -63 -173 -85 0 -23 80 -19 216 10 65 14 123 24 131 21 17 -7 17 -51 -2
-112 -21 -69 -20 -114 3 -114 26 0 36 10 76 72 19 31 61 78 93 105 31 26 82
71 114 100 67 61 99 78 252 137 336 130 497 262 559 459 35 115 76 147 262
206 l99 32 136 -35 c224 -57 419 -92 676 -121 553 -62 1057 -233 1638 -557
l112 -62 -185 -23 c-437 -54 -660 -125 -718 -230 -40 -74 -55 -187 -49 -378 7
-212 35 -403 88 -586 22 -77 38 -143 36 -146 -3 -2 -19 16 -36 40 -36 53 -86
97 -110 97 -41 0 -54 -56 -26 -110 32 -61 35 -78 19 -95 -23 -23 -63 -18 -173
21 -160 57 -189 38 -90 -60 35 -34 78 -72 94 -84 30 -20 30 -21 10 -37 -36
-28 -98 -57 -184 -86 -121 -41 -139 -63 -78 -96 51 -27 137 -21 231 15 l79 31
-6 -92 c-4 -51 -15 -119 -26 -152 -23 -70 -14 -89 26 -59 45 34 89 98 118 173
43 113 132 174 201 138 16 -9 58 -41 94 -72 74 -65 120 -91 145 -81 28 10 13
78 -34 149 l-40 61 59 62 c115 124 139 216 121 476 -28 426 -8 528 105 528 26
0 107 -16 178 -35 188 -49 292 -65 430 -65 138 0 202 12 381 69 70 23 134 41
142 41 8 0 48 -27 89 -59 111 -90 229 -169 564 -381 639 -404 871 -568 1148
-813 159 -141 247 -249 306 -378 84 -183 93 -345 30 -532 -109 -320 -462 -571
-919 -653 -122 -22 -427 -30 -552 -15 -305 38 -538 134 -787 328 -84 65 -119
69 -124 14 -3 -31 4 -41 85 -121 255 -250 659 -416 1203 -492 145 -20 576 -17
717 5 387 61 666 185 877 387 229 220 340 505 339 870 0 241 -41 408 -158 645
-115 234 -265 435 -505 676 -249 250 -456 417 -940 762 -162 115 -344 249
-404 296 l-108 86 6 70 c3 39 11 207 16 375 11 329 2 590 -23 672 -32 102 -94
147 -203 148 -50 0 -68 -5 -107 -30 -58 -37 -125 -127 -184 -248 -25 -51 -47
-92 -48 -90 -2 2 -33 80 -70 173 -104 265 -167 371 -311 524 -355 377 -1008
661 -1744 757 -132 17 -520 25 -710 15 l-75 -4 -6 31 c-22 109 -161 156 -287
97z"/>
</g>
</svg>
