<?xml version="1.0" standalone="no"?>
<!DOCTYPE svg PUBLIC "-//W3C//DTD SVG 20010904//EN"
 "http://www.w3.org/TR/2001/REC-SVG-20010904/DTD/svg10.dtd">
<svg version="1.0" xmlns="http://www.w3.org/2000/svg"
 width="1299.000000pt" height="1299.000000pt" viewBox="0 0 1299.000000 1299.000000"
 preserveAspectRatio="xMidYMid meet">

<g transform="translate(0.000000,1299.000000) scale(0.100000,-0.100000)"
fill="#000000" stroke="none">
<path d="M1493 9218 c-32 -36 -44 -89 -44 -191 1 -354 236 -804 615 -1183 166
-165 284 -249 694 -495 384 -230 674 -418 931 -604 310 -224 567 -368 831
-465 159 -59 173 -67 314 -180 197 -157 386 -297 575 -426 186 -126 279 -209
336 -298 47 -74 70 -135 116 -309 28 -108 54 -180 98 -270 80 -162 105 -253
105 -382 0 -87 -4 -108 -28 -165 -49 -115 -52 -127 -31 -150 22 -25 90 -27
123 -5 23 17 46 85 57 170 13 104 26 110 74 31 55 -91 83 -187 88 -306 6 -118
17 -140 68 -140 74 0 83 71 34 282 -34 150 -48 268 -31 268 18 0 206 -193 224
-231 9 -19 22 -52 28 -74 16 -64 23 -70 67 -59 l38 9 -1 70 c-1 83 -29 162
-79 228 -40 52 -43 67 -16 67 45 0 65 62 41 126 -6 15 -79 96 -163 178 -84 83
-174 183 -200 222 l-48 70 -14 175 c-23 278 -48 421 -110 623 -14 44 -23 81
-21 83 1 2 63 -13 137 -31 335 -86 533 -111 904 -110 302 0 420 7 725 46 251
31 466 12 549 -50 59 -44 34 -73 -157 -181 -197 -111 -279 -194 -316 -320 -32
-110 -16 -251 69 -611 59 -249 67 -300 68 -400 1 -78 -3 -96 -51 -227 -70
-190 -68 -243 8 -246 33 -2 35 0 48 43 34 117 128 250 177 250 51 0 79 -153
50 -280 -9 -41 -19 -96 -22 -122 -5 -40 -2 -48 16 -57 28 -16 82 -17 108 -3
32 18 43 64 58 247 9 118 17 172 29 190 19 29 27 30 64 11 69 -37 124 -126
137 -224 9 -66 31 -95 75 -95 43 0 60 24 60 84 0 57 -15 102 -87 252 -30 65
-53 121 -49 125 6 6 46 -4 163 -39 52 -16 73 -2 73 46 0 46 -47 83 -168 130
-109 43 -163 88 -206 173 -36 71 -47 121 -56 266 -6 96 -15 153 -34 211 -14
44 -26 98 -26 119 0 44 -2 42 174 186 151 124 211 148 279 113 69 -35 398
-261 512 -351 140 -111 286 -209 413 -276 50 -27 162 -102 249 -168 256 -194
408 -272 631 -324 203 -47 547 -42 771 13 156 37 291 126 340 222 83 161 66
307 -74 656 -97 241 -111 307 -81 379 37 90 6 208 -79 292 -61 61 -116 78
-224 68 -80 -8 -106 3 -196 81 -134 116 -219 169 -379 235 -239 100 -496 250
-496 291 0 6 16 17 36 25 19 8 54 28 76 44 60 44 94 40 224 -24 220 -108 409
-226 453 -282 17 -21 21 -41 21 -94 0 -80 17 -108 71 -116 50 -8 72 15 62 64
-4 21 -7 48 -7 62 -2 74 145 -2 332 -172 67 -60 98 -70 124 -38 47 58 11 125
-111 209 -89 61 -136 114 -129 148 2 10 19 26 38 35 30 16 65 18 251 18 248 0
260 3 262 73 2 71 -31 80 -201 57 -103 -14 -168 -6 -250 32 -75 36 -67 51 32
63 88 9 146 37 146 69 0 18 -9 30 -30 41 -40 21 -80 19 -182 -7 -78 -20 -93
-21 -147 -10 -84 17 -159 53 -348 165 -201 119 -242 140 -339 173 -194 65
-365 17 -617 -173 -61 -45 -118 -83 -126 -82 -9 0 -47 41 -86 91 -90 117 -362
392 -485 489 -442 351 -898 543 -1402 590 -189 17 -630 7 -838 -20 -223 -29
-553 -83 -735 -121 -148 -31 -366 -83 -400 -96 -15 -6 -16 -4 -6 14 16 30 14
67 -5 83 -9 7 -56 18 -105 25 -82 11 -119 25 -119 43 0 4 20 31 45 60 54 63
71 93 80 144 6 32 3 40 -23 67 -42 42 -67 39 -92 -10 -21 -41 -144 -144 -164
-137 -15 5 -13 62 5 121 13 46 13 49 -10 67 -33 27 -104 26 -129 -2 -19 -20
-32 -68 -32 -122 0 -43 -29 -85 -81 -117 -41 -25 -48 -34 -62 -87 -21 -72 -21
-169 -2 -203 36 -63 8 -94 -100 -109 -39 -6 -160 -28 -270 -50 -257 -51 -401
-65 -585 -58 -312 13 -388 43 -1300 494 -572 283 -693 341 -863 409 -129 51
-209 106 -304 208 -89 96 -143 198 -218 416 -59 173 -93 243 -125 260 -31 16
-65 12 -87 -12z"/>
</g>
</svg>
