<?xml version="1.0" standalone="no"?>
<!DOCTYPE svg PUBLIC "-//W3C//DTD SVG 20010904//EN"
 "http://www.w3.org/TR/2001/REC-SVG-20010904/DTD/svg10.dtd">
<svg version="1.0" xmlns="http://www.w3.org/2000/svg"
 width="1299.000000pt" height="1299.000000pt" viewBox="0 0 1299.000000 1299.000000"
 preserveAspectRatio="xMidYMid meet">

<g transform="translate(0.000000,1299.000000) scale(0.100000,-0.100000)"
fill="#000000" stroke="none">
<path d="M1264 10629 c-114 -27 -223 -198 -276 -433 -27 -120 -29 -339 -4
-476 24 -128 76 -288 146 -442 100 -222 162 -323 456 -753 101 -147 157 -252
225 -420 144 -359 251 -495 623 -795 226 -183 389 -350 438 -449 22 -44 23
-61 29 -346 4 -165 10 -330 14 -366 l7 -66 -39 -39 c-22 -22 -48 -54 -57 -71
-28 -55 -56 -194 -56 -280 0 -92 10 -128 45 -161 14 -12 28 -35 31 -50 26
-115 44 -142 94 -142 40 0 99 56 139 129 l29 55 7 -40 c18 -106 41 -144 88
-144 42 0 100 62 117 126 19 70 21 71 42 31 26 -52 59 -71 110 -64 60 8 90 42
96 111 3 35 -1 71 -12 102 -9 26 -16 49 -16 50 0 1 8 0 19 -3 49 -13 131 66
131 125 0 47 -27 91 -118 191 -101 111 -135 186 -140 306 -1 50 1 140 5 200
l9 110 164 -160 c91 -88 356 -349 590 -581 234 -231 470 -457 525 -500 439
-350 973 -703 1339 -885 228 -113 506 -201 789 -249 66 -11 144 -20 175 -20
l57 0 -3 -107 c-9 -282 85 -505 271 -646 141 -107 247 -153 442 -192 149 -29
191 -49 242 -112 148 -182 230 -221 298 -142 34 41 59 131 51 186 l-6 45 44
-39 c79 -70 150 -76 212 -18 36 34 43 69 24 119 -9 24 -8 25 16 16 67 -26 146
7 178 75 35 74 -9 121 -156 169 -15 4 -13 9 12 35 47 47 38 106 -21 137 -57
29 -135 35 -289 22 -229 -20 -240 -19 -262 18 -20 35 -42 132 -53 232 l-6 62
160 0 c309 0 527 -45 857 -175 349 -139 486 -171 729 -169 184 2 267 15 632
98 408 93 524 140 651 260 81 78 143 171 197 296 139 326 94 470 -233 733
-408 329 -743 519 -1089 616 -145 41 -242 57 -473 76 -107 9 -219 18 -249 21
l-54 6 45 39 c25 21 51 52 58 68 12 29 10 31 -77 121 -113 116 -138 125 -295
109 -60 -6 -163 -9 -231 -7 -109 5 -136 10 -252 47 -71 24 -161 46 -199 50
-189 21 -325 -52 -344 -185 l-7 -48 -215 145 c-118 80 -327 224 -465 321 -753
527 -1298 847 -1880 1106 -110 49 -218 98 -240 110 l-40 21 38 1 c84 1 163 80
182 182 9 47 -17 139 -55 195 l-28 42 19 38 c28 54 22 142 -12 179 -38 42 -83
56 -166 53 -73 -3 -74 -3 -93 28 -26 44 -50 48 -133 23 -142 -43 -379 -170
-639 -344 l-116 -78 -185 46 c-220 54 -438 125 -600 194 -280 121 -423 237
-514 417 -68 133 -91 202 -168 488 -35 133 -77 280 -93 327 -158 461 -374 751
-707 948 -179 106 -415 168 -531 141z"/>
</g>
</svg>
