<?xml version="1.0" standalone="no"?>
<!DOCTYPE svg PUBLIC "-//W3C//DTD SVG 20010904//EN"
 "http://www.w3.org/TR/2001/REC-SVG-20010904/DTD/svg10.dtd">
<svg version="1.0" xmlns="http://www.w3.org/2000/svg"
 width="1299.000000pt" height="1299.000000pt" viewBox="0 0 1299.000000 1299.000000"
 preserveAspectRatio="xMidYMid meet">

<g transform="translate(0.000000,1299.000000) scale(0.100000,-0.100000)"
fill="#000000" stroke="none">
<path d="M7190 9259 c-129 -14 -294 -45 -500 -94 -221 -52 -344 -76 -760 -149
-174 -30 -369 -66 -435 -80 -203 -43 -268 -84 -687 -421 -159 -129 -241 -187
-403 -290 -33 -21 -96 -68 -140 -106 -100 -84 -442 -431 -598 -605 l-117 -132
-72 39 c-40 20 -95 45 -123 54 -27 10 -158 61 -290 115 -338 139 -489 190
-559 190 -114 0 -273 -174 -307 -337 -17 -84 -8 -278 15 -322 16 -30 17 -42 7
-84 -34 -146 7 -299 116 -439 55 -69 113 -119 227 -193 95 -62 428 -225 566
-278 l84 -32 -57 -10 c-53 -9 -67 -18 -179 -115 -188 -162 -543 -520 -629
-635 -122 -164 -219 -371 -300 -640 -40 -134 -45 -145 -119 -245 -116 -158
-133 -191 -134 -264 -2 -98 18 -92 168 53 69 67 132 121 140 121 15 0 18 -12
32 -115 3 -27 10 -57 14 -65 5 -9 -7 -60 -31 -130 -21 -63 -41 -140 -45 -170
-11 -94 32 -199 72 -174 18 10 79 161 131 322 27 81 28 83 58 80 26 -3 31 -8
36 -41 3 -21 17 -50 31 -65 17 -18 28 -44 32 -77 15 -107 58 -301 76 -342 10
-24 26 -43 34 -43 33 0 41 42 46 243 l5 199 33 13 c22 10 32 11 32 3 0 -7 8
-21 19 -32 14 -16 21 -49 29 -138 11 -122 29 -174 72 -213 16 -14 25 -17 38
-9 22 15 29 45 48 228 16 149 19 163 44 191 15 17 34 41 43 54 l17 25 11 -33
c21 -59 96 -206 112 -219 34 -28 40 -5 33 117 -4 64 -12 147 -19 185 l-12 69
55 111 c70 143 106 250 120 359 14 118 44 211 74 230 12 9 59 57 102 108 43
51 91 106 105 123 l26 30 69 -36 c179 -94 452 -190 960 -337 l71 -21 47 -132
c43 -119 47 -136 36 -163 -6 -16 -23 -61 -37 -100 -47 -131 -40 -320 12 -320
16 0 23 13 37 68 18 66 69 157 88 157 5 0 24 -28 42 -62 l32 -63 1 -230 c0
-242 5 -275 45 -275 27 0 66 86 97 216 14 60 27 114 29 121 2 9 11 10 33 2 26
-9 31 -18 41 -67 43 -216 96 -327 116 -246 4 15 4 86 0 159 l-6 133 27 5 c16
3 30 1 32 -5 2 -6 22 -47 45 -92 31 -61 46 -81 61 -81 28 0 31 39 9 134 -9 42
-18 110 -19 151 -3 71 0 80 41 165 39 81 70 182 89 288 5 29 10 37 23 33 30
-8 331 -55 492 -75 353 -46 476 -54 939 -58 1196 -13 2327 93 2861 269 52 17
142 53 199 79 57 27 106 49 108 49 16 0 -21 -59 -87 -135 -90 -106 -150 -192
-150 -218 0 -10 7 -20 16 -24 16 -6 90 27 152 68 l33 22 -7 -29 c-3 -16 -17
-37 -30 -47 -45 -35 -76 -103 -82 -176 -4 -55 -1 -70 13 -85 24 -24 36 -17 65
41 14 28 34 63 46 78 l20 27 38 -25 c20 -15 58 -29 84 -32 88 -12 369 -85 538
-141 259 -85 385 -85 510 -2 27 18 63 54 81 81 65 97 54 186 -42 359 -47 84
-74 150 -101 239 -37 127 -90 248 -144 330 -29 43 -62 171 -48 184 3 3 75 23
159 44 163 40 235 70 295 123 39 34 73 97 74 134 0 36 35 69 139 133 117 72
151 108 151 158 0 57 -55 102 -187 152 -172 65 -211 88 -298 176 -110 109
-206 257 -335 516 -206 410 -512 912 -754 1234 -211 281 -275 331 -596 460
-208 84 -302 133 -465 240 -391 258 -984 469 -1450 515 -154 15 -543 21 -645
9z"/>
</g>
</svg>
