<?xml version="1.0" standalone="no"?>
<!DOCTYPE svg PUBLIC "-//W3C//DTD SVG 20010904//EN"
 "http://www.w3.org/TR/2001/REC-SVG-20010904/DTD/svg10.dtd">
<svg version="1.0" xmlns="http://www.w3.org/2000/svg"
 width="1300.000000pt" height="1300.000000pt" viewBox="0 0 1300.000000 1300.000000"
 preserveAspectRatio="xMidYMid meet">

<g transform="translate(0.000000,1300.000000) scale(0.100000,-0.100000)"
fill="#000000" stroke="none">
<path d="M6385 8489 c-279 -36 -691 -158 -1005 -297 -69 -30 -134 -54 -145
-53 -11 0 -46 4 -77 7 -145 15 -551 -142 -958 -369 l-54 -31 -251 -1 c-277 -1
-368 -14 -459 -63 -71 -39 -100 -88 -104 -176 -2 -39 3 -102 11 -139 17 -80
23 -79 -111 -16 -92 43 -173 113 -250 214 -60 80 -121 143 -154 161 -15 8 -49
19 -76 25 -36 7 -62 22 -98 56 -27 25 -85 69 -129 98 -286 189 -801 354 -950
305 -66 -22 -188 -14 -335 21 -175 41 -271 44 -319 10 -21 -15 -43 -45 -58
-80 -13 -31 -44 -96 -68 -146 -56 -114 -67 -164 -65 -300 1 -60 -2 -130 -6
-154 -4 -26 -1 -68 6 -99 48 -217 347 -684 654 -1023 28 -31 64 -74 80 -97 65
-92 179 -167 508 -338 197 -102 408 -216 426 -230 2 -1 -5 -23 -16 -48 -31
-69 -95 -125 -220 -191 -185 -97 -297 -205 -434 -414 -70 -109 -85 -149 -74
-204 20 -95 20 -98 -38 -197 -89 -156 -87 -187 16 -175 36 4 58 3 58 -3 0 -6
-16 -33 -35 -62 -63 -93 -44 -130 74 -149 84 -14 99 -27 76 -70 -24 -48 -16
-91 22 -117 44 -29 129 -43 308 -51 122 -5 160 -3 205 10 216 63 475 375 860
1037 78 135 154 258 169 273 56 61 132 75 213 39 24 -10 94 -65 157 -121 302
-273 585 -467 821 -564 214 -88 631 -155 1165 -186 99 -6 212 -13 250 -16 39
-3 275 -10 527 -15 805 -18 1858 17 2211 75 l82 13 285 -120 c157 -66 359
-149 450 -185 179 -71 475 -173 502 -173 9 0 33 -24 53 -55 68 -102 141 -145
247 -144 40 0 96 -5 123 -12 72 -17 429 -12 520 7 39 8 129 19 200 23 111 8
142 14 210 41 167 67 175 76 175 193 0 140 -75 464 -117 509 -42 44 -142 90
-418 193 -269 101 -435 170 -493 205 l-34 21 74 51 c40 28 99 78 130 110 l57
59 138 -18 c190 -24 585 -24 728 1 154 26 252 54 344 97 143 67 211 136 211
216 0 35 -6 48 -37 78 -54 53 -121 79 -303 120 -91 21 -196 48 -235 62 -80 29
-248 114 -289 146 -26 21 -26 24 -16 76 5 29 10 104 10 165 0 172 -37 279
-134 384 -62 67 -145 122 -316 207 -202 101 -265 144 -274 186 -30 152 -456
445 -690 474 -31 4 -53 11 -50 16 9 16 -15 85 -45 126 -106 146 -541 320
-1081 433 -80 16 -155 32 -166 35 -12 3 -24 15 -28 28 -14 59 -102 112 -242
146 -203 51 -627 76 -1097 66 -307 -7 -309 -7 -323 14 -20 28 -77 56 -142 70
-61 13 -235 13 -337 0z"/>
</g>
</svg>
